<svg width="100" height="100" viewBox="0 0 100 100" fill="none" xmlns="http://www.w3.org/2000/svg">
<rect width="60.1852" height="8.33333" transform="matrix(-1 0 0 1 80.0927 16.6667)" fill="white"/>
<rect width="37.5" height="8.33333" transform="matrix(0 1 1 0 71.7593 45.8333)" fill="white"/>
<rect width="37.5" height="8.33333" transform="matrix(0 1 1 0 19.9073 16.6667)" fill="white"/>
<rect width="19.1667" height="8.33333" transform="matrix(-1 0 0 1 39.0741 45.926)" fill="white"/>
<rect width="8.05556" height="13.4259" transform="matrix(-1 0 0 1 44.6296 43.3333)" fill="white"/>
<rect width="6.2037" height="2.31482" transform="matrix(-1 0 0 1 48.9814 46.7593)" fill="white"/>
<rect width="6.2037" height="2.31482" transform="matrix(-1 0 0 1 48.9814 51.9446)" fill="white"/>
<rect width="8.05556" height="13.4259" transform="matrix(-1 0 0 1 63.4259 43.3333)" fill="white"/>
<rect width="19.1667" height="8.33333" transform="matrix(-1 0 0 1 80.0927 45.926)" fill="white"/>
<rect width="60.1852" height="8.33333" transform="matrix(-1 0 0 1 80.0927 75)" fill="white"/>
</svg>
